<?xml version="1.0" encoding="iso-8859-1"?>
<!-- Generator: Adobe Illustrator 19.0.0, SVG Export Plug-In . SVG Version: 6.00 Build 0)  -->
<svg version="1.1" id="Layer_1" xmlns="http://www.w3.org/2000/svg" xmlns:xlink="http://www.w3.org/1999/xlink" x="0px" y="0px"
	 viewBox="0 0 480 480" style="enable-background:new 0 0 480 480;" xml:space="preserve">
<g>
	<g>
		<g>
			<path d="M200.14,149.36c-2.63,0-5.21,1.07-7.07,2.93s-2.93,4.44-2.93,7.07s1.07,5.21,2.93,7.07s4.44,2.93,7.07,2.93
				s5.21-1.07,7.07-2.93s2.93-4.44,2.93-7.07s-1.07-5.21-2.93-7.07S202.77,149.36,200.14,149.36z"/>
			<path d="M274.89,149.36c-2.63,0-5.21,1.07-7.07,2.93c-1.86,1.86-2.93,4.43-2.93,7.07c0,2.63,1.07,5.21,2.93,7.07
				s4.44,2.93,7.07,2.93s5.21-1.07,7.07-2.93s2.93-4.44,2.93-7.07s-1.07-5.21-2.93-7.07S277.52,149.36,274.89,149.36z"/>
			<path d="M480,161.11c0-30.032-24.436-54.465-54.473-54.465c-14.466,0-37.845,5.687-56.855,13.829
				c-11.284,4.833-20.296,10.153-26.94,15.84c-7.14-48.617-49.124-86.061-99.696-86.061c-50.036,0-91.663,36.666-99.445,84.541
				c-7.069-5.131-16.362-9.954-27.876-14.444c-20.361-7.94-45.697-13.704-60.243-13.704C24.437,106.645,0,131.078,0,161.11
				s24.437,54.465,54.473,54.465c1.917,0,4.026-0.103,6.283-0.295c-8.208,7.176-14.79,13.993-18.49,18.977
				c-17.901,24.115-12.85,58.301,11.263,76.207c9.467,7.027,20.685,10.741,32.441,10.741c17.168,0,33.518-8.221,43.73-21.981
				c7.93-10.662,19.335-34.973,25.532-58.785c2.593,10.737,5.539,21.809,8.831,32.949c11.926,40.357,31.45,91.499,57.474,109.461
				c1.087,3.418,2.575,11.113,3.607,16.443c1.092,5.641,2.221,11.474,3.405,15.989c1.233,4.695,3.797,14.466,13.054,14.466
				c9.132,0,12.257-9.628,13.759-14.254c1.541-4.747,3.039-10.857,4.486-16.765c1.424-5.81,3.516-14.345,4.871-17.483
				c25.43-19.512,44.499-70.69,56.089-110.553c2.15-7.395,4.198-14.975,6.121-22.588c6.441,21.205,16.291,41.598,23.366,51.11
				c10.218,13.77,26.568,21.99,43.736,21.99c0.001,0,0,0,0.001,0c11.755,0,22.974-3.714,32.443-10.742
				c24.111-17.905,29.163-52.09,11.261-76.206c-3.702-4.987-10.29-11.81-18.505-18.99c2.235,0.198,4.353,0.309,6.298,0.309
				C455.564,215.575,480,191.142,480,161.11z M54.473,195.575C35.464,195.575,20,180.114,20,161.11
				c0-19.004,15.464-34.465,34.473-34.465c10.346,0,32.428,4.324,52.975,12.337c25.173,9.817,31.825,18.767,31.825,22.128
				c0,3.359-6.651,12.306-31.825,22.125C86.898,191.25,64.816,195.575,54.473,195.575z M113.646,287.295
				c-6.56,8.839-16.647,13.909-27.675,13.909c-7.431,0-14.527-2.352-20.52-6.799c-15.259-11.331-18.456-32.966-7.126-48.228
				c11.54-15.544,54.031-48.458,74.14-48.458c1.295,0,3.057,0.162,4.096,0.934c1.248,0.925,2.244,3.359,2.733,6.675
				C142.611,227.825,124.153,273.168,113.646,287.295z M251.744,365.972c-4.153,2.961-6.284,8.398-9.075,19.042
				c-2.313-10.659-4.188-15.22-8.524-17.814c-6.545-3.965-13.386-11.993-20.232-23.486h56.203
				C263.917,354.11,257.718,361.69,251.744,365.972z M280.474,323.714h-76.903c-3.146-6.899-6.259-14.493-9.315-22.713h95.557
				C286.753,309.216,283.63,316.806,280.474,323.714z M301.603,265.108c-1.592,5.475-3.218,10.769-4.87,15.893h-109.39
				c-1.385-4.302-2.754-8.725-4.101-13.282c-0.93-3.148-1.831-6.294-2.705-9.432H303.54
				C302.907,260.559,302.265,262.832,301.603,265.108z M308.773,238.29c-0.014,0-0.028-0.002-0.042-0.002H175.305
				c-1.907-7.773-3.629-15.386-5.159-22.713h143.777C312.394,222.907,310.678,230.517,308.773,238.29z M317.756,195.575H166.311
				c-3.314-19.056-5.032-34.857-5.032-44.558c0-44.534,36.228-80.765,80.758-80.765c44.538,0,80.772,36.231,80.772,80.765
				C322.809,160.624,321.081,176.459,317.756,195.575z M421.674,246.177c11.331,15.263,8.134,36.898-7.123,48.227
				c-5.994,4.449-13.09,6.8-20.522,6.8c-11.028,0-21.116-5.07-27.682-13.918c-10.501-14.118-28.959-59.461-25.642-81.957
				c0.489-3.316,1.485-5.75,2.733-6.675c1.04-0.771,2.801-0.934,4.096-0.934C367.643,197.72,410.135,230.634,421.674,246.177z
				 M376.547,183.359c-19.645-8.415-28.438-17.238-28.438-22.249c0-5.014,8.793-13.839,28.437-22.252
				c18.522-7.933,39.06-12.213,48.981-12.213c19.008,0,34.473,15.461,34.473,34.465c0,19.004-15.464,34.465-34.473,34.465
				C415.607,195.575,395.069,191.294,376.547,183.359z"/>
		</g>
	</g>
</g>
<g>
</g>
<g>
</g>
<g>
</g>
<g>
</g>
<g>
</g>
<g>
</g>
<g>
</g>
<g>
</g>
<g>
</g>
<g>
</g>
<g>
</g>
<g>
</g>
<g>
</g>
<g>
</g>
<g>
</g>
</svg>
